<svg width="32" height="22" viewBox="0 0 32 22" fill="none" xmlns="http://www.w3.org/2000/svg">
<path d="M32 0H13.75V2.75H32V0Z" fill="#F0F0F0"/>
<path d="M32 2.75H13.75V5.5H32V2.75Z" fill="#DB001E"/>
<path d="M32 5.5H13.75V8.25H32V5.5Z" fill="#F0F0F0"/>
<path d="M32 8.25H13.75V11H32V8.25Z" fill="#DB001E"/>
<path d="M32 11H0V13.75H32V11Z" fill="#F0F0F0"/>
<path d="M32 13.75H0V16.5H32V13.75Z" fill="#DB001E"/>
<path d="M32 16.5H0V19.25H32V16.5Z" fill="#F0F0F0"/>
<path d="M32 19.25H0V22H32V19.25Z" fill="#DB001E"/>
<path d="M16 0H0V11.8953H16V0Z" fill="#2C4FB5"/>
<path d="M2.73203 1.79053L3.08203 2.52599L3.87578 2.64111L3.30078 3.21669L3.43828 4.0225L2.73203 3.63878L2.01953 4.0225L2.15703 3.21669L1.58203 2.64111L2.37578 2.52599L2.73203 1.79053Z" fill="white"/>
<path d="M6.23203 1.79053L6.58203 2.52599L7.37578 2.64111L6.80078 3.21669L6.93828 4.0225L6.23203 3.63878L5.51953 4.0225L5.65703 3.21669L5.08203 2.64111L5.87578 2.52599L6.23203 1.79053Z" fill="white"/>
<path d="M9.73203 1.79053L10.082 2.52599L10.8758 2.64111L10.3008 3.21669L10.4383 4.0225L9.73203 3.63878L9.01953 4.0225L9.15703 3.21669L8.58203 2.64111L9.37578 2.52599L9.73203 1.79053Z" fill="white"/>
<path d="M13.2945 1.79053L13.6445 2.52599L14.4383 2.64111L13.8633 3.21669L14.0008 4.0225L13.2945 3.63878L12.582 4.0225L12.7195 3.21669L12.1445 2.64111L12.9383 2.52599L13.2945 1.79053Z" fill="white"/>
<path d="M2.73203 4.66846L3.08203 5.40392L3.87578 5.51904L3.30078 6.09462L3.43828 6.90043L2.73203 6.51671L2.01953 6.90043L2.15703 6.09462L1.58203 5.51904L2.37578 5.40392L2.73203 4.66846Z" fill="white"/>
<path d="M6.23203 4.66846L6.58203 5.40392L7.37578 5.51904L6.80078 6.09462L6.93828 6.90043L6.23203 6.51671L5.51953 6.90043L5.65703 6.09462L5.08203 5.51904L5.87578 5.40392L6.23203 4.66846Z" fill="white"/>
<path d="M9.73203 4.66846L10.082 5.40392L10.8758 5.51904L10.3008 6.09462L10.4383 6.90043L9.73203 6.51671L9.01953 6.90043L9.15703 6.09462L8.58203 5.51904L9.37578 5.40392L9.73203 4.66846Z" fill="white"/>
<path d="M13.2945 4.66846L13.6445 5.40392L14.4383 5.51904L13.8633 6.09462L14.0008 6.90043L13.2945 6.51671L12.582 6.90043L12.7195 6.09462L12.1445 5.51904L12.9383 5.40392L13.2945 4.66846Z" fill="white"/>
<path d="M2.73203 7.61084L3.08203 8.3463L3.87578 8.46142L3.30078 9.037L3.43828 9.84281L2.73203 9.45909L2.01953 9.84281L2.15703 9.037L1.58203 8.46142L2.37578 8.3463L2.73203 7.61084Z" fill="white"/>
<path d="M6.23203 7.61084L6.58203 8.3463L7.37578 8.46142L6.80078 9.037L6.93828 9.84281L6.23203 9.45909L5.51953 9.84281L5.65703 9.037L5.08203 8.46142L5.87578 8.3463L6.23203 7.61084Z" fill="white"/>
<path d="M9.73203 7.61084L10.082 8.3463L10.8758 8.46142L10.3008 9.037L10.4383 9.84281L9.73203 9.45909L9.01953 9.84281L9.15703 9.037L8.58203 8.46142L9.37578 8.3463L9.73203 7.61084Z" fill="white"/>
<path d="M13.2945 7.61084L13.6445 8.3463L14.4383 8.46142L13.8633 9.037L14.0008 9.84281L13.2945 9.45909L12.582 9.84281L12.7195 9.037L12.1445 8.46142L12.9383 8.3463L13.2945 7.61084Z" fill="white"/>
</svg>
