<svg xmlns="http://www.w3.org/2000/svg" xmlns:xlink="http://www.w3.org/1999/xlink" viewBox="0 0 3000 3000"><defs><style>.cls-1{isolation:isolate;}.cls-2{fill:#23100e;}.cls-3{fill:#301916;}.cls-4{fill:#160504;}.cls-5{mix-blend-mode:multiply;opacity:0.38;fill:url(#Degradado_sin_nombre_22);}.cls-6{fill:#b7403d;}.cls-7{fill:#d87866;}.cls-8{fill:#c47f5e;}.cls-9{fill:#da9876;}.cls-10{fill:#f7a39f;}.cls-11{fill:#d8615b;}.cls-12,.cls-13,.cls-14,.cls-16{fill:none;stroke:#301916;stroke-linecap:round;stroke-linejoin:round;}.cls-12{stroke-width:8px;}.cls-13{stroke-width:10px;}.cls-14{stroke-width:14px;}.cls-15{stroke:#160504;stroke-miterlimit:10;}.cls-16{stroke-width:40px;}.cls-17{fill:#fff;}</style><radialGradient id="Degradado_sin_nombre_22" cx="1500.33" cy="1761.99" r="744.35" gradientUnits="userSpaceOnUse"><stop offset="0" stop-color="#23100e"/><stop offset="0.15" stop-color="#402f2d"/><stop offset="0.49" stop-color="#897e7d"/><stop offset="0.99" stop-color="#fcfcfc"/><stop offset="1" stop-color="#fff"/></radialGradient></defs><g class="cls-1"><g id="Capa_3" data-name="Capa 3"><path class="cls-2" d="M2193.35,1152.19c-75.95,0-87.84,27.72-87.84,26.64l-1,0c1.68-75.75.09-183.9.05-269.68-42.45,9.29-124.82,18.19-284.59,18.19-289.44,0-444.77-184-557.89-317.17h0c-17.48-20.56-34-39.27-49.73-55.06C1095,437.78,1000.78,491,999.54,491.71c1.66-2.39,214.47-308.15,646.22-308.15,396,0,686.23,204.48,686.23,800.64v229.44C2294.24,1174.66,2243.6,1152.19,2193.35,1152.19Z"/><path class="cls-3" d="M2332.5,1214.88l-.86-.89c-37.74-39-88.14-61.3-138.29-61.3-62.09,0-81.59,18.22-87.09,26-.33.46-.5.72-.89.6h0l-1.36,0,0-.5c1.14-51.84.76-118.77.39-183.5q-.26-45.24-.35-85.55c-55.28,12-150.85,18.07-284.08,18.07-288.62,0-443.77-182.58-557-315.89l-1.36-1.61c-21-24.76-35.88-41.19-49.58-54.89-60.55-60.55-114.75-74.63-149.56-75.78-37.81-1.25-61.62,11.93-62.62,12.5l-1.9,1.07,1.24-1.8c2.22-3.19,55.51-79,161.95-155.09A818.93,818.93,0,0,1,1362.71,230.9c89.25-31.74,184.48-47.84,283-47.84,455.69,0,686.74,269.54,686.74,801.14Zm-139.15-63.19c50,0,100.32,22.11,138.15,60.72V984.2c0-530.93-230.72-800.14-685.74-800.14-223.07,0-386.38,83.25-484.1,153.09-98.94,70.7-151.87,141.17-160.51,153.16,6.4-3.15,28.7-12.75,61.3-11.66,22.3.73,45,6.29,67.53,16.49,28.06,12.73,55.89,32.78,82.7,59.59,13.74,13.74,28.62,30.22,49.76,55.09l1.23,1.46C1376.83,744.44,1531.8,926.82,1820,926.82c133.65,0,229.36-6.12,284.48-18.18l.6-.13v.62q0,40.61.35,86.17c.37,64.52.75,131.24-.38,183h.32l.11-.16C2111,1170.21,2130.79,1151.69,2193.35,1151.69Z"/><path class="cls-4" d="M895.52,981.09v.23c0,69.95-1.07,135.92-.6,197.51h-.51c0,1.08-11.88-26.64-87.84-26.64-50.22,0-100.81,22.44-138.56,61.38h0V984.2c0-296.64,227.68-388.64,331.53-492.48h0c1.24-.7,95.48-53.93,212.79,63.37,15.78,15.79,32.25,34.5,49.73,55.06h0C1262.06,933.41,1082.88,977.71,895.52,981.09Z"/><path class="cls-4" d="M668,1214.28l-.51-.5V984.2c0-231.56,138-338.08,248.85-423.68,30.85-23.81,60-46.31,82.83-69.15l.12-.1c1-.56,25-13.88,63.15-12.62,22.3.73,45,6.29,67.53,16.49,28.06,12.73,55.89,32.78,82.7,59.59,13.74,13.74,28.62,30.22,49.76,55.09l.11.14v.18c0,147.83-37,247.87-113.2,305.83-31.77,24.18-70.18,41.09-117.4,51.68C994.1,976.14,950.9,980.57,896,981.58c0,29.33-.19,58.06-.38,85.84-.25,38.94-.5,75.72-.23,111.41v.5h-.87c-.39.12-.56-.14-.89-.6-5.5-7.83-25-26-87.09-26-50.11,0-100.48,22.32-138.21,61.23ZM999.85,492.11C977,515,947.81,537.5,917,561.31,806.27,646.77,668.5,753.13,668.5,984.2v228.15c37.82-38.57,88.07-60.66,138.08-60.66,62.3,0,82.15,18.36,87.84,26.37-.26-35.45,0-72,.23-110.64.19-27.87.38-56.69.38-86.1v-.72h.49c79.76-1.44,180.63-10.17,253.23-65.41,75.88-57.74,112.78-157.45,112.8-304.86-21-24.76-35.88-41.19-49.58-54.89-60.55-60.55-114.75-74.63-149.56-75.78C1025.16,478.41,1001.48,491.2,999.85,492.11Z"/><path class="cls-2" d="M668,1536c37.51,37.49,91.75,59.75,161.61,59.75,54.9,0,109.8-18,141.77-38.18,57.78,84,158.56,139.58,333.81,161.72v104.56q-4.5,2.07-9.11,4.47a3.26,3.26,0,0,0-2.43,1.28c-85.2,45.6-193.9,170.83-193.9,197.39,0,6.69-.84,21.06-1.86,39.68-56.57,0-255.63,96.23-368,282.27h0c-67.11-33.65-188.58-201-188.58-414.29C541.28,1695.56,668,1536,668,1536Z"/><path class="cls-3" d="M729.92,2349.32l-.21-.23c-37.29-18.72-84.2-73.62-119.52-139.88a592.6,592.6,0,0,1-49.12-124.58,577.86,577.86,0,0,1-20-150,687.93,687.93,0,0,1,19.8-163.19,718,718,0,0,1,43.58-125.87c31.33-69,63.07-109.34,63.39-109.74l.17-.22.2.2c39.06,39,94.89,59.68,161.44,59.68,59.85,0,113.7-20.55,141.63-38.14l.21-.13.13.2C1033,1646.64,1139,1698,1305.23,1719l.22,0V1824l-.15.07c-3,1.38-6.06,2.88-9.11,4.46l-.11,0a3,3,0,0,0-2.24,1.19l-.07.06C1256,1850,1209,1888.56,1164.94,1935.57c-38.23,40.76-64.94,78.34-64.94,91.38,0,5.93-.67,18.09-1.51,33.49l-.36,6.44h-.24c-27,0-89.51,22.33-162.93,71.33-59.25,39.55-142.89,108.22-204.87,210.82Zm-61.89-813c-2.57,3.3-33.06,43.1-63.16,109.42-28.9,63.64-63.33,165.41-63.33,288.84,0,119.63,37.57,215.24,69.09,274.37,35.22,66.09,82,120.85,119.15,139.6,26.22-43.36,58.81-84.55,96.88-122.44a720,720,0,0,1,108-88.33c73.29-48.92,135.77-71.28,163-71.42l.33-6c.85-15.39,1.51-27.54,1.51-33.46,0-13.16,26.76-50.88,65.07-91.73,44.11-47,91.1-85.6,128.93-105.86A3.48,3.48,0,0,1,1296,1828c3-1.55,6-3,8.94-4.38V1719.47c-86-10.89-155-29.74-210.82-57.64-52.56-26.27-92.74-60.28-122.82-104-28,17.6-81.88,38.09-141.69,38.09-34.08,0-65.38-5.33-93-15.83A193.77,193.77,0,0,1,668,1536.34Z"/><path class="cls-2" d="M1706.77,1829.71q-6-3.23-11.82-5.9V1719l-.14-1.43c165.71-24.16,264.85-82.28,324-166.74,29.57,22.67,90.53,44.92,151.5,44.92,69.88,0,124.13-22.27,161.64-59.79l0,0s126.73,159.6,126.73,398.64c0,213.12-121.34,380.46-188.48,414.24-112.41-186-311.45-282.21-368-282.21-1-18.62-1.86-33-1.86-39.68C1900.38,2000.42,1791.92,1875.44,1706.77,1829.71Z"/><path class="cls-3" d="M2270.15,2349.17l-.12-.2c-62-102.58-145.63-171.24-204.87-210.78-73.42-49-135.92-71.31-162.91-71.31H1902l-.36-6.44c-.84-15.4-1.52-27.56-1.52-33.49,0-13-26.64-50.55-64.8-91.25-44-46.93-90.9-85.48-128.67-105.77h0c-4-2.16-8-4.14-11.81-5.89l-.14-.07V1719l-.17-1.64.24,0c155.23-22.63,261.15-77.14,323.83-166.63l.15-.22.21.16c29.08,22.3,90.41,44.87,151.35,44.87,66.57,0,122.4-20.65,161.46-59.72l.18-.17.23.23c.32.4,32.06,40.73,63.39,109.74a718,718,0,0,1,43.58,125.87A687.93,687.93,0,0,1,2459,1934.6c0,212.78-120.91,380.41-188.6,414.46Zm-367.67-282.79c27.2.13,89.67,22.49,163,71.39a721,721,0,0,1,108,88.32c38.07,37.89,70.67,79.07,96.89,122.42,67.63-34.25,188.12-201.56,188.12-413.91,0-123.43-34.43-225.2-63.33-288.84-30.25-66.64-60.88-106.5-63.19-109.47a193.81,193.81,0,0,1-68.58,43.83c-27.65,10.51-59,15.84-93,15.84-28.4,0-58.7-4.83-87.61-14-25.79-8.16-48.45-19.1-63.84-30.84-30.87,44-70.77,78.63-122,105.84-54.61,29-120.63,48.9-201.8,60.75l.11,1.2v104.71c3.78,1.74,7.71,3.71,11.68,5.84h0c37.83,20.31,84.77,58.9,128.8,105.87,38.24,40.79,64.94,78.45,64.94,91.59,0,5.92.67,18.07,1.52,33.46Z"/><circle class="cls-5" cx="1500.33" cy="1761.99" r="744.35"/><path class="cls-6" d="M1706.77,1829.71c11.29,13.53,7.83,120.27-11.74,180.41l-.08,0V1823.81Q1700.77,1826.48,1706.77,1829.71Z"/><path class="cls-6" d="M1305.19,1823.81v186c-19.57-60.41-23-167.43-11.54-180.3l2.43-1.28Q1300.69,1825.88,1305.19,1823.81Z"/><ellipse class="cls-7" cx="1065.28" cy="1319.36" rx="115.08" ry="83.16"/><path class="cls-7" d="M1065.29,1403.52c-64,0-116.08-37.75-116.08-84.16s52.07-84.16,116.08-84.16,116.08,37.75,116.08,84.16S1129.29,1403.52,1065.29,1403.52Zm0-166.32c-62.91,0-114.08,36.86-114.08,82.16s51.17,82.16,114.08,82.16,114.08-36.86,114.08-82.16S1128.19,1237.2,1065.29,1237.2Z"/><path class="cls-8" d="M1694.81,1717.53l.14,1.43c0,107.63-87.25,194.88-194.87,194.88s-194.73-87.09-194.89-194.59c56.76,7.17,121.34,10.84,194.82,10.84h.07C1573.51,1730.09,1638.06,1725.8,1694.81,1717.53Z"/><path class="cls-7" d="M1934.72,1236.2c63.55,0,115.07,37.23,115.07,83.16s-51.52,83.16-115.07,83.16-115.07-37.23-115.07-83.16S1871.16,1236.2,1934.72,1236.2Z"/><path class="cls-7" d="M1934.72,1403.52c-64,0-116.08-37.75-116.08-84.16s52.08-84.16,116.08-84.16,116.07,37.75,116.07,84.16S1998.73,1403.52,1934.72,1403.52Zm0-166.32c-62.9,0-114.08,36.86-114.08,82.16s51.18,82.16,114.08,82.16,114.07-36.86,114.07-82.16S1997.62,1237.2,1934.72,1237.2Z"/><path class="cls-9" d="M2393.51,1369.63c0,67.33-21,125.73-61.56,166.29-37.51,37.52-91.76,59.79-161.64,59.79-61,0-121.93-22.25-151.5-44.92,66.23-94.54,82.35-222.1,85.68-372l1,0c0,1.08,11.89-26.64,87.84-26.64,50.25,0,100.89,22.47,138.64,61.45C2368.9,1251.73,2393.51,1305.58,2393.51,1369.63Z"/><path class="cls-9" d="M2170.32,1596.08c-61.08,0-122.57-22.63-151.73-45l-.29-.22.21-.29c70.21-100.22,82.64-237.91,85.61-371.78v-.37l1.26,0,.15-.21c5.58-8,25.31-26.43,87.81-26.43,50.38,0,101,22.44,138.91,61.57,39.74,41,61.63,96.51,61.63,156.25,0,68.63-21.33,126.22-61.67,166.56C2293,1575.37,2237.06,1596.08,2170.32,1596.08Zm-151-45.37c29.18,22.21,90.27,44.62,151,44.62,66.54,0,122.34-20.63,161.37-59.67,40.2-40.2,61.45-97.61,61.45-166,0-59.54-21.81-114.85-61.41-155.73-37.76-39-88.2-61.34-138.38-61.34-62.15,0-81.68,18.26-87.19,26.11-.32.45-.46.64-.75.55l0,0h-.5C2101.87,1312.93,2089.41,1450.44,2019.33,1550.71Z"/><path class="cls-9" d="M894.92,1178.83c1.18,156.93,12.32,285.39,76.46,378.7-32,20.14-86.87,38.18-141.77,38.18-69.86,0-124.1-22.26-161.61-59.75-40.59-40.57-61.59-99-61.59-166.33,0-64.09,24.65-118,61.6-156.06,37.75-38.94,88.34-61.38,138.56-61.38,76,0,87.84,27.72,87.84,26.64Z"/><path class="cls-9" d="M829.62,1596.08c-66.72,0-122.7-20.69-161.88-59.85-40.36-40.35-61.7-98-61.7-166.6,0-59.79,21.91-115.3,61.71-156.32,37.88-39.08,88.48-61.5,138.83-61.5,62.5,0,82.23,18.48,87.81,26.43l.15.22h.76v.37c1.25,166.88,14.47,288.4,76.39,378.49l.23.32-.33.21C943.58,1575.49,889.6,1596.08,829.62,1596.08Zm-23-443.52c-50.15,0-100.55,22.34-138.3,61.27-39.65,40.88-61.49,96.21-61.49,155.8,0,68.44,21.26,125.86,61.48,166.06,39,39,94.83,59.64,161.35,59.64,59.59,0,113.23-20.37,141.23-37.91-61.8-90.14-75-211.57-76.3-378.21h0c-.29.09-.43-.1-.75-.55C888.26,1170.82,868.73,1152.56,806.58,1152.56Z"/><path class="cls-9" d="M1695,2010.09l.08,0c-7.88,24.21-18.37,40.87-31.56,40.87h-.16c-28.7,0-21.5,54.08-21.5,65.15,0,77-39.61,143.28-77.25,186.39-1.77,1.63-3.5,3.31-5.23,5v.81c-27,29.56-52,46.71-59.25,46.71s-32.27-17.15-59.27-46.72v-.8c-1.71-1.7-3.43-3.37-5.18-5-37.66-43.1-77.3-109.45-77.3-186.44,0-11.07,7.2-65.15-21.48-65.15-13.25,0-23.77-16.78-31.66-41.13V1719.25c.16,107.5,87.35,194.59,194.89,194.59S1695,1826.59,1695,1719v291.13Z"/><path class="cls-9" d="M1500.08,2355.46c-7,0-31.64-16.28-59.55-46.85l-.1-.1v-.8c-1.71-1.7-3.41-3.34-5-4.85-28.93-33.11-77.42-101.35-77.42-186.72,0-1.42.12-3.51.26-6.16.75-13.54,2.32-41.7-8.69-53.34a16.78,16.78,0,0,0-12.69-5.27c-12.33,0-23.1-13.93-32-41.39l0-.12V1719.25h.75c.16,107.09,87.41,194.21,194.51,194.21,107.25,0,194.5-87.25,194.5-194.5h.75v290.87l.17.07-.11.34c-8.88,27.29-19.62,41.13-31.93,41.13h-.16a16.77,16.77,0,0,0-12.68,5.27c-11,11.64-9.44,39.8-8.69,53.34.14,2.65.26,4.74.26,6.16,0,85.33-48.46,153.56-77.35,186.64-1.7,1.57-3.42,3.23-5.13,4.93v.81l-.1.1C1531.7,2339.18,1507.1,2355.46,1500.08,2355.46Zm-58.9-47.25c27.72,30.34,52,46.5,58.9,46.5s31.15-16.16,58.88-46.49v-.82l.11-.11c1.75-1.75,3.51-3.45,5.23-5,28.79-33,77.14-101,77.14-186.11,0-1.4-.11-3.48-.26-6.12-.76-13.64-2.33-42,8.9-53.89a17.48,17.48,0,0,1,13.22-5.51h.16c11.75,0,22.52-14,31.15-40.41l0-.12V1736.15c-8.73,99.65-92.63,178.06-194.5,178.06a195.29,195.29,0,0,1-194.51-178V2009.8c8.66,26.7,19.47,40.82,31.27,40.82a17.49,17.49,0,0,1,13.23,5.51c11.23,11.87,9.66,40.25,8.9,53.89-.14,2.64-.26,4.72-.26,6.12,0,85.12,48.37,153.19,77.21,186.19,1.65,1.53,3.4,3.21,5.15,5l.11.11Z"/><path class="cls-9" d="M2018.81,1550.79c-59.15,84.46-158.29,142.58-324,166.74-56.75,8.27-121.3,12.56-194.73,12.56H1500c-73.48,0-138.06-3.67-194.82-10.84-175.25-22.14-276-77.67-333.81-161.72-64.14-93.31-75.28-221.77-76.46-378.7-.47-61.59.6-138.6.6-208.55,0,0,366.54-57.36,366.54-360.13,113.12,133.13,268.45,315,557.89,315,159.77,0,242.14-8.9,284.59-18.19,0,85.78,1.63,196.09-.05,271.84C2101.16,1328.69,2085,1456.25,2018.81,1550.79Zm31-231.43c0-45.93-51.52-83.16-115.07-83.16s-115.07,37.23-115.07,83.16,51.51,83.16,115.07,83.16S2049.79,1365.29,2049.79,1319.36Zm-869.43,0c0-45.93-51.53-83.16-115.08-83.16s-115.08,37.23-115.08,83.16,51.52,83.16,115.08,83.16S1180.36,1365.29,1180.36,1319.36Z"/><path class="cls-9" d="M1500.08,1732.09c-72.48,0-138.11-3.65-195.14-10.86-166.94-21.09-273.45-72.74-335.2-162.57-62.27-90.58-75.56-212.49-76.82-379.81-.27-36,0-76.51.24-119.38.18-29.57.37-60.14.37-89.19v-1.71l1.69-.27c.91-.14,92.41-14.9,182.68-66.34,83.1-47.35,182.15-136.41,182.15-291.81v-5.44l3.53,4.14C1376.3,741.5,1530.67,923.16,1820,923.16c133.54,0,229.14-6.1,284.16-18.14l2.42-.53V907c0,27,.18,55.84.35,86.4.37,65.65.76,133.54-.39,185.48-3,134.23-15.49,272.35-86,373.09h0c-31,44.34-71.2,79.21-122.74,106.6-54.84,29.14-121.12,49.09-202.61,61C1637.82,1727.86,1572.2,1732.09,1500.08,1732.09ZM897.53,972c0,28.55-.19,58.52-.37,87.53-.26,42.85-.51,83.32-.24,119.31,1.26,166.58,14.43,287.84,76.11,377.59,61.06,88.81,166.68,139.93,332.42,160.87,56.85,7.18,122.31,10.82,194.55,10.82,72,0,137.43-4.22,194.53-12.54,154.72-22.56,260.26-76.83,322.65-165.91h0c70-99.86,82.35-237.27,85.32-370.87,1.15-51.89.76-119.75.39-185.38-.16-29.63-.32-57.66-.34-83.94-55.66,11.75-150.7,17.71-282.59,17.71-128.71,0-242-35.31-346.21-107.94-88-61.28-155.37-139.71-209.73-203.67-1,67.32-20.35,127.77-57.61,179.77-30.57,42.66-73.18,79.73-126.63,110.17C995.66,953.4,910.49,969.69,897.53,972Zm1037.19,432.55c-64.55,0-117.08-38.2-117.08-85.16s52.53-85.16,117.08-85.16,117.07,38.2,117.07,85.16S1999.28,1404.52,1934.72,1404.52Zm0-166.32c-62.35,0-113.08,36.41-113.08,81.16s50.73,81.16,113.08,81.16,113.07-36.41,113.07-81.16S1997.07,1238.2,1934.72,1238.2Zm-869.43,166.32c-64.56,0-117.08-38.2-117.08-85.16s52.52-85.16,117.08-85.16,117.08,38.2,117.08,85.16S1129.84,1404.52,1065.29,1404.52Zm0-166.32c-62.36,0-113.08,36.41-113.08,81.16s50.72,81.16,113.08,81.16,113.08-36.41,113.08-81.16S1127.64,1238.2,1065.29,1238.2Z"/><path class="cls-6" d="M1663.47,2051c85.27.24,172.64,193.22,213,220.53-39.16-14.22-206.85-66.82-311.89,31,37.64-43.11,77.25-109.43,77.25-186.39,0-11.07-7.2-65.15,21.5-65.15Z"/><path class="cls-6" d="M1565.58,2303.63l-2.16-2.09c28.72-32.88,76.9-100.69,76.9-185.4,0-1.37-.12-3.44-.26-6.06-.77-13.79-2.36-42.5,9.2-54.73a18.58,18.58,0,0,1,14-5.86h.17c25.56.07,53.32,16.85,84.88,51.29,27,29.51,52.28,66.82,74.54,99.74,22,32.59,41.08,60.73,54.41,69.76l10,6.78-11.37-4.13C1842.62,2260.83,1671,2205.43,1565.58,2303.63Zm97.72-251.14a15.45,15.45,0,0,0-11.86,4.93c-10.68,11.28-9.13,39.12-8.39,52.5.15,2.66.27,4.76.27,6.22,0,75.37-37.63,137.44-66.43,173.88,43.43-33.95,100-49.59,168.39-46.51,53.34,2.4,100.21,15.86,123.79,23.83-13.07-12.51-29.77-37.2-48.66-65.14-22.21-32.83-47.38-70-74.27-99.39-31-33.79-58-50.25-82.68-50.32Z"/><circle class="cls-10" cx="1500.07" cy="2682.25" r="32.76"/><circle class="cls-10" cx="1500.07" cy="2464.16" r="32.76"/><path class="cls-6" d="M1559.33,2782.57l0,1.18q-29.26.45-59.27.45t-59.3-.45l0-1.18V2308.36c27,29.57,52,46.72,59.27,46.72s32.25-17.15,59.25-46.71Zm-26.5-318.41a32.76,32.76,0,1,0-32.75,32.76A32.76,32.76,0,0,0,1532.83,2464.16Zm0,218.09a32.76,32.76,0,1,0-32.75,32.76A32.75,32.75,0,0,0,1532.83,2682.25Z"/><path class="cls-11" d="M2270.24,2348.84c47,77.74,78.85,171.18,78.85,279.84,0,58.07-320.17,148-789.74,155.07l0-1.18v-474.2c1.74-1.9,3.48-3.84,5.23-5.84,105-97.83,272.73-45.23,311.89-31,3.07,2.07,5.87,3.19,8.37,3.19,28.17,0,21.38-135.93,17.42-208.08C1958.79,2066.63,2157.83,2162.83,2270.24,2348.84Z"/><path class="cls-11" d="M1557.88,2785.27l0-2.68v-474.8l.39-.43c1.88-2.06,3.58-4,5.19-5.81l.11-.12c44.93-41.84,106.08-61.33,181.75-57.92,60.2,2.71,112.15,19.5,131.69,26.6l.32.17c2.89,1.94,5.42,2.93,7.54,2.93a7.84,7.84,0,0,0,5.81-2.82c20.12-21.25,13.1-149.09,10.11-203.68l-.09-1.58h1.59c27.25,0,90.16,22.41,163.88,71.6,59.39,39.64,143.24,108.49,205.4,211.33h0c52.46,86.8,79.06,181.21,79.06,280.62,0,15.08-20.14,32.06-58.25,49.1-38.48,17.21-94.4,34.16-161.7,49-156.27,34.49-359.15,55.25-571.26,58.45Zm3-476.32v473.28c211.36-3.27,413.44-24,569.15-58.36,67.11-14.81,122.83-31.7,161.13-48.83,37-16.52,56.47-32.55,56.47-46.36,0-98.85-26.45-192.74-78.63-279.06h0c-61.87-102.39-145.36-170.92-204.5-210.39-71.79-47.91-133-70.23-160.63-71.08,3.3,60.23,9.81,182.31-11,204.3a10.81,10.81,0,0,1-8,3.76c-2.72,0-5.68-1.09-9.06-3.34-33.73-12.23-204.87-67.25-310.14,30.7C1564.13,2305.3,1562.56,2307.07,1560.84,2309Z"/><path class="cls-11" d="M1440.81,2308.36v474.21l0,1.18c-469.57-7.08-789.73-97-789.73-155.07,0-108.63,31.84-202,78.82-279.78,112.39-186,311.45-282.26,368-282.27-4,72.15-10.73,208.08,17.42,208.08,2.51,0,5.31-1.12,8.39-3.2,39.19-14.22,206.9-66.82,311.93,31.07C1437.36,2304.56,1439.08,2306.48,1440.81,2308.36Z"/><path class="cls-11" d="M1442.26,2785.27l-1.5,0c-212.11-3.2-415-24-571.25-58.45-67.31-14.86-123.22-31.81-161.71-49-38.1-17-58.25-34-58.25-49.1,0-99.39,26.6-193.79,79-280.56,62.15-102.87,146-171.72,205.39-211.36,73.73-49.21,136.65-71.63,163.91-71.63h1.59l-.09,1.58c-3,54.59-10,182.43,10.11,203.68a7.86,7.86,0,0,0,5.82,2.82c2.11,0,4.65-1,7.55-2.94l.32-.17c19.56-7.1,71.55-23.89,131.72-26.59,75.67-3.41,136.82,16.11,181.75,58l.1.11c1.68,1.92,3.41,3.86,5.15,5.76l.39.43Zm-346-717.11c-27.64.84-88.86,23.17-160.66,71.09-59.14,39.48-142.63,108-204.49,210.43-52.16,86.29-78.61,180.16-78.61,279,0,13.81,19.53,29.84,56.48,46.36,38.3,17.13,94,34,161.12,48.83,155.71,34.37,357.79,55.09,569.15,58.36V2308.94c-1.6-1.76-3.19-3.54-4.74-5.31-105.23-98-276.42-43-310.17-30.77-3.38,2.25-6.35,3.35-9.07,3.35a10.81,10.81,0,0,1-8-3.76C1086.5,2250.46,1093,2128.38,1096.31,2068.16Z"/><path class="cls-6" d="M1358.33,2116.14c0,77,39.64,143.34,77.3,186.44-105-97.89-272.74-45.29-311.93-31.07,40.37-27.35,127.83-220.52,213.15-220.52C1365.53,2051,1358.33,2105.07,1358.33,2116.14Z"/><path class="cls-6" d="M1434.61,2303.68c-105.4-98.23-277-42.86-310.39-30.76l-11.34,4.12,10-6.77c13.33-9,32.37-37.17,54.4-69.75,22.29-33,47.55-70.3,74.62-99.82,31.59-34.46,59.38-51.21,85-51.21a18.58,18.58,0,0,1,14.05,5.86c11.56,12.23,10,40.94,9.2,54.73-.14,2.62-.25,4.69-.25,6.06,0,84.76,48.19,152.57,76.92,185.45Zm-163.09-60.55c61,0,111.9,15.74,151.74,46.91-28.8-36.45-66.42-98.51-66.42-173.9,0-1.46.11-3.56.26-6.22.74-13.38,2.29-41.22-8.39-52.5a15.46,15.46,0,0,0-11.87-4.93c-24.69,0-51.76,16.43-82.75,50.23-26.92,29.36-52.11,66.61-74.34,99.48-18.9,27.93-35.6,52.63-48.67,65.14,23.59-8,70.49-21.44,123.83-23.83Q1263.34,2243.12,1271.52,2243.13Z"/><path class="cls-10" d="M1305.19,2009.86c7.89,24.35,18.41,41.13,31.66,41.13-85.32,0-172.78,193.17-213.15,220.52-5.43,2-8.39,3.2-8.39,3.2-28.15,0-21.38-135.93-17.42-208.08,1-18.62,1.86-33,1.86-39.68,0-26.56,108.7-151.79,193.9-197.39C1282.24,1842.43,1285.62,1949.45,1305.19,2009.86Z"/><path class="cls-10" d="M1902.24,2066.63c4,72.15,10.75,208.08-17.42,208.08,0,0-3-1.23-8.37-3.19-40.34-27.31-127.71-220.29-213-220.53,13.19,0,23.68-16.66,31.56-40.87,19.57-60.14,23-166.88,11.74-180.41,85.15,45.73,193.61,170.71,193.61,197.24C1900.38,2033.64,1901.22,2048,1902.24,2066.63Z"/><path class="cls-8" d="M894.41,1452.07c-13-15.12-17.28-46.44-45.36-116.64s-133.92-48.6-133.92,0C715.13,1480.28,774.19,1452.07,894.41,1452.07Z"/><path class="cls-8" d="M2105.51,1452.07c13-15.12,17.28-46.44,45.37-116.64s133.91-48.6,133.91,0C2284.79,1480.28,2225.74,1452.07,2105.51,1452.07Z"/><path class="cls-12" d="M715.13,1335.43c0-48.6,105.84-70.2,133.92,0s32.4,101.52,45.36,116.64"/><path class="cls-12" d="M803,1371.29c0-36.94,46.08-35.86,46.08-35.86"/><path class="cls-12" d="M2284.79,1335.43c0-48.6-105.84-70.2-133.91,0s-32.41,101.52-45.37,116.64"/><path class="cls-12" d="M2197,1371.29c0-36.94-46.07-35.86-46.07-35.86"/><path class="cls-7" d="M1500,1314.44c-34.3,0-63.34-14-63.34-54.32,0-32.32,37.37-46.55,63.34-46.55,31.67,0,63.34,15.25,63.34,46.55,0,40.33-29,54.32-63.34,54.32"/><path class="cls-13" d="M1436.66,1270.32c0,35.28,29,47.52,63.34,47.52"/><path class="cls-13" d="M1563.34,1270.32c0,35.28-29,47.52-63.34,47.52"/><path class="cls-14" d="M1734.45,1392.84c-31.65,66.45-114.1,93.26-184.16,59.9"/><path class="cls-15" d="M2127.18,977c0-15.06-145.5-33.87-319.86-33.87-177.81,4.7-213.13,86.06-307.32,84.67-94.19,1.39-129.51-80-307.32-84.67-174.36,0-319.86,18.81-319.86,33.87s-4.52,80.39,11,79.12c41.65,3.66,28.48,289.66,308.83,289.66,272.2,0,222-270.94,307.32-270.94s35.12,270.94,307.32,270.94c280.35,0,267.18-286,308.83-289.66C2131.7,1057.42,2127.18,992.08,2127.18,977Zm-952.06,357.49c-99.1,0-166.83-71.5-174.36-79s-75.26-124.19-75.26-195.69,72.75-94.07,249.62-94.07c139.23,0,254.64,46.41,254.64,112.89C1429.76,1303.16,1274.21,1334.52,1175.12,1334.52Zm824.12-79c-7.53,7.52-75.26,79-174.36,79s-254.64-31.36-254.64-255.89c0-66.48,115.41-112.89,254.64-112.89,176.87,0,249.62,22.58,249.62,94.07S2006.76,1248,1999.24,1255.5Z"/><path class="cls-16" d="M1129.62,1050.84s56.17-46.37,152.63-36.94"/><circle class="cls-17" cx="1244.35" cy="1162.99" r="119.93"/><circle class="cls-3" cx="1244.35" cy="1162.99" r="91.63"/><path class="cls-16" d="M1870.38,1050.84s-56.17-46.37-152.63-36.94"/><circle class="cls-17" cx="1755.65" cy="1162.99" r="119.93"/><circle class="cls-3" cx="1755.65" cy="1162.99" r="91.63"/></g></g></svg>